<svg viewBox="0 0 1024 1066.744" xmlns="http://www.w3.org/2000/svg"><path d="M69.818 288.038h869.47v593.455c-.133 102.258-82.994 185.118-185.24 185.25H255.07c-102.257-.13-185.117-82.992-185.25-185.237v-.013zm799.65 69.82H139.637v523.635c.08 63.72 51.713 115.353 115.425 115.433h498.976c63.72-.08 115.353-51.713 115.433-115.425v-.007zm-152.203 98.21h-69.818V234.046c0-78.918-63.976-142.895-142.895-142.895s-142.895 63.977-142.895 142.896v222.022H291.84V234.046c0-117.478 95.234-212.713 212.712-212.713s212.713 95.235 212.713 212.713z"/></svg>